<?xml version="1.0" encoding="UTF-8" standalone="no"?>
<!-- Generator: Adobe Illustrator 21.0.0, SVG Export Plug-In . SVG Version: 6.00 Build 0)  -->

<svg
   xmlns:dc="http://purl.org/dc/elements/1.1/"
   xmlns:cc="http://creativecommons.org/ns#"
   xmlns:rdf="http://www.w3.org/1999/02/22-rdf-syntax-ns#"
   xmlns:svg="http://www.w3.org/2000/svg"
   xmlns="http://www.w3.org/2000/svg"
   xmlns:sodipodi="http://sodipodi.sourceforge.net/DTD/sodipodi-0.dtd"
   xmlns:inkscape="http://www.inkscape.org/namespaces/inkscape"
   version="1.1"
   id="Слой_1"
   x="0px"
   y="0px"
   viewBox="0 0 34.95921 40.48447"
   xml:space="preserve"
   sodipodi:docname="cards.svg"
   width="34.959209"
   height="40.48447"
   inkscape:version="0.92.1 r15371"><metadata
     id="metadata35"><rdf:RDF><cc:Work
         rdf:about=""><dc:format>image/svg+xml</dc:format><dc:type
           rdf:resource="http://purl.org/dc/dcmitype/StillImage" /><dc:title></dc:title></cc:Work></rdf:RDF></metadata><defs
     id="defs33" /><sodipodi:namedview
     pagecolor="#ffffff"
     bordercolor="#666666"
     borderopacity="1"
     objecttolerance="10"
     gridtolerance="10"
     guidetolerance="10"
     inkscape:pageopacity="0"
     inkscape:pageshadow="2"
     inkscape:window-width="1366"
     inkscape:window-height="705"
     id="namedview31"
     showgrid="false"
     fit-margin-top="0"
     fit-margin-left="0"
     fit-margin-right="0"
     fit-margin-bottom="0"
     inkscape:zoom="5.5921037"
     inkscape:cx="43.371515"
     inkscape:cy="19.178614"
     inkscape:window-x="-8"
     inkscape:window-y="-8"
     inkscape:window-maximized="1"
     inkscape:current-layer="g28" /><style
     type="text/css"
     id="style2">
	.st0{fill:#F79F1A;}
	.st1{fill:#EA001B;}
	.st2{fill:#FF5F01;}
	.st3{fill:#00579F;}
	.st4{fill:#FAA61A;}
</style><g
     transform="translate(-64.14079,-126.8)"
     id="g28"><path
       class="st0"
       d="m 99,136.8 c 0,5.5 -4.7,10 -10.5,10 -5.8,0 -10.5,-4.5 -10.5,-10 0,-5.5 4.7,-10 10.5,-10 5.8,0 10.5,4.5 10.5,10 z"
       id="path4"
       inkscape:connector-curvature="0"
       style="fill:#f79f1a" /><path
       class="st1"
       d="m 86,136.8 c 0,5.5 -4.7,10 -10.5,10 -5.8,0 -10.5,-4.5 -10.5,-10 0,-5.5 4.7,-10 10.5,-10 5.8,0 10.5,4.5 10.5,10 z"
       id="path6"
       inkscape:connector-curvature="0"
       style="fill:#ea001b" /><path
       class="st2"
       d="m 82,129 c -2.4,1.8 -4,4.7 -4,7.9 0,3.2 1.6,6 4,7.9 2.4,-1.8 4,-4.7 4,-7.9 0,-3.3 -1.6,-6.1 -4,-7.9 z"
       id="path8"
       inkscape:connector-curvature="0"
       style="fill:#ff5f01" /><g
       id="g12"><path
         class="st0"
         d="m 98.9,142.2 v -0.4 h -0.1 l -0.1,0.3 -0.1,-0.3 h -0.1 v 0.4 h 0.1 v -0.3 l 0.1,0.3 h 0.2 v -0.3 z m -0.6,0 v -0.3 h 0.1 v -0.1 h -0.3 v 0.1 h 0.1 z"
         id="path10"
         inkscape:connector-curvature="0"
         style="fill:#f79f1a" /></g><g
       id="g20"
       transform="translate(-0.71529432)"><path
         d="m 66.7,152.7 h -0.6 v -2.8 h 0.6 v 0.3 c 0,0 0.5,-0.4 0.8,-0.4 0.6,0 1,0.5 1,0.5 0,0 0.3,-0.5 1,-0.5 0.5,0 1,0.3 1.1,0.9 v 1.9 H 70 v -1.7 c 0,0 0,-0.5 -0.6,-0.5 -0.7,0 -0.7,0.5 -0.7,0.5 v 1.7 h -0.6 v -1.7 c 0,0 -0.1,-0.5 -0.6,-0.5 -0.7,0 -0.7,0.6 -0.7,0.6 z m 18.7,-2.8 c -0.3,0 -0.8,0.4 -0.8,0.4 V 150 H 84 v 2.8 h 0.6 v -1.7 c 0,0 0,-0.6 0.7,-0.6 0.1,0 0.2,0 0.3,0.1 v 0 l 0.2,-0.5 c -0.1,-0.1 -0.3,-0.2 -0.4,-0.2 z m 8.6,0 c -0.3,0 -0.8,0.4 -0.8,0.4 V 150 h -0.6 v 2.8 h 0.6 v -1.7 c 0,0 0,-0.6 0.7,-0.6 0.1,0 0.2,0 0.3,0.1 v 0 l 0.2,-0.5 C 94.3,150 94.2,149.9 94,149.9 Z m -21.4,0 c -0.9,0 -1.4,0.8 -1.4,1.5 0,0.7 0.6,1.5 1.4,1.5 0.5,0 0.9,-0.4 0.9,-0.4 v 0.3 h 0.6 V 150 h -0.6 v 0.3 c 0,0 -0.4,-0.4 -0.9,-0.4 z m 0.1,0.6 c 0.5,0 0.9,0.4 0.9,0.9 0,0.5 -0.4,0.9 -0.9,0.9 -0.5,0 -0.9,-0.4 -0.9,-0.9 v 0 c 0,-0.5 0.4,-0.9 0.9,-0.9 z m 17.5,-0.6 c -0.9,0 -1.4,0.8 -1.4,1.5 0,0.7 0.6,1.5 1.4,1.5 0.5,0 0.9,-0.4 0.9,-0.4 v 0.3 h 0.6 V 150 h -0.6 v 0.3 c 0.1,0 -0.3,-0.4 -0.9,-0.4 z m 0.1,0.6 c 0.5,0 0.9,0.4 0.9,0.9 0,0.5 -0.4,0.9 -0.9,0.9 -0.5,0 -0.9,-0.4 -0.9,-0.9 v 0 c 0,-0.5 0.4,-0.9 0.9,-0.9 z m 5.7,-0.6 c -0.9,0 -1.4,0.8 -1.4,1.5 0,0.7 0.6,1.5 1.4,1.5 0.5,0 0.9,-0.4 0.9,-0.4 v 0.3 h 0.6 V 149 h -0.6 v 1.4 c 0.1,-0.1 -0.3,-0.5 -0.9,-0.5 z m 0.1,0.6 c 0.5,0 0.9,0.4 0.9,0.9 0,0.5 -0.4,0.9 -0.9,0.9 -0.5,0 -0.9,-0.4 -0.9,-0.9 v 0 c 0,-0.5 0.4,-0.9 0.9,-0.9 z M 76,152.8 c -0.6,0 -1.2,-0.4 -1.2,-0.4 l 0.3,-0.4 c 0,0 0.5,0.2 0.9,0.2 0.3,0 0.7,-0.1 0.7,-0.3 0,-0.3 -0.7,-0.3 -0.7,-0.3 0,0 -1.1,0 -1.1,-0.9 0,-0.5 0.5,-0.9 1.2,-0.9 0.4,0 1.1,0.3 1.1,0.3 l -0.3,0.5 c 0,0 -0.6,-0.2 -0.9,-0.2 -0.3,0 -0.6,0.1 -0.6,0.3 0,0.6 1.8,0 1.8,1.1 0.1,0.9 -0.6,1 -1.2,1 z m 2.3,-3.6 v 0.8 h -0.5 v 0.6 h 0.5 v 1.4 c 0,0 0,0.9 1,0.9 0.3,0 0.9,-0.2 0.9,-0.2 L 80,152.1 c 0,0 -0.2,0.2 -0.5,0.2 C 79,152.3 79,152 79,152 v -1.4 h 1 V 150 h -1 v -0.8 z m 3.6,0.7 c -1,0 -1.5,0.8 -1.5,1.5 0,0.7 0.4,1.5 1.5,1.5 0.5,0 1.1,-0.4 1.1,-0.4 L 82.7,152 c 0,0 -0.4,0.3 -0.8,0.3 -0.8,0 -0.8,-0.7 -0.8,-0.7 h 2.2 c 0,0 0.1,-1.7 -1.4,-1.7 z m 0,0.6 v 0 c 0.8,0 0.8,0.7 0.8,0.7 h -1.5 c 0,0 -0.1,-0.7 0.7,-0.7 z m 6.3,1.5 0.3,0.5 c 0,0 -0.4,0.3 -0.9,0.3 -1,0 -1.6,-0.7 -1.6,-1.5 0,-1.1 0.9,-1.4 1.5,-1.4 0.6,0 1,0.3 1,0.3 l -0.3,0.5 c 0,0 -0.2,-0.3 -0.8,-0.3 -0.6,0 -0.8,0.5 -0.8,0.9 0,0.5 0.3,0.9 0.9,0.9 0.3,0.1 0.7,-0.2 0.7,-0.2 z"
         id="path14"
         inkscape:connector-curvature="0" /><g
         id="g18"><path
           d="m 98.8,152.4 c -0.1,0 -0.2,0 -0.2,0.1 -0.1,0.1 -0.1,0.3 0,0.4 v 0 c 0.1,0.1 0.1,0.1 0.2,0.1 0.1,0 0.2,0 0.2,-0.1 0.1,-0.1 0.1,-0.1 0.1,-0.2 0,-0.1 0,-0.1 -0.1,-0.2 0,-0.1 -0.1,-0.1 -0.2,-0.1 z m 0,0.5 c -0.1,0 -0.1,0 -0.2,-0.1 -0.1,-0.1 -0.1,-0.2 0,-0.3 v 0 c 0,0 0.1,-0.1 0.2,-0.1 0.1,0 0.1,0 0.2,0.1 0.1,0.1 0.1,0.2 0,0.3 v 0 c 0,0 -0.1,0.1 -0.2,0.1 z m 0.1,-0.4 v 0 l -0.1,0.3 h 0.1 v -0.1 0 l 0.1,0.1 h 0.1 L 99,152.7 c 0,0 0,0 0.1,0 0,0 0,0 0,-0.1 -0.1,0 -0.1,0 -0.2,-0.1 z m 0,0.1 v 0 0 0 c 0,0 0,0.1 0,0 z"
           id="path16"
           inkscape:connector-curvature="0" /></g></g><g
       id="g26"><path
         class="st3"
         d="m 79.24079,167.28447 h -3.1 l 1.9,-11 h 3.1 z m 9.9,-10.5 c -0.8,-0.3 -1.6,-0.5 -2.4,-0.5 -2.6,0 -4.5,1.4 -4.5,3.5 0,1.5 1.3,2.4 2.3,2.9 1,0.5 1.4,0.9 1.4,1.3 0,0.7 -0.8,1 -1.6,1 -1.1,0 -1.6,-0.2 -2.5,-0.6 l -0.4,-0.2 -0.4,2.4 c 0.6,0.3 1.8,0.6 3,0.6 2.8,0 4.6,-1.4 4.6,-3.6 0,-1.2 -0.7,-2.1 -2.2,-2.9 -0.9,-0.5 -1.5,-0.8 -1.5,-1.3 0,-0.5 0.5,-0.9 1.5,-0.9 0.7,0 1.4,0.1 2,0.4 l 0.2,0.1 z m 3.9,6.6 1,-3.1 c 0,0 0.2,-0.6 0.3,-1.1 l 0.2,0.9 c 0,0 0.5,2.6 0.6,3.2 h -2.1 z m 3.1,-7.1 h -1.9 c -0.6,0 -1.1,0.2 -1.3,0.9 l -3.7,10.1 h 2.6 l 0.5,-1.6 h 3.2 c 0.1,0.4 0.3,1.6 0.3,1.6 h 2.3 z m -22.7,0 -2.5,7.5 -0.3,-1.5 c -0.5,-1.8 -1.9,-3.7 -3.5,-4.6 l 2.3,9.6 h 2.7 l 4,-11 z"
         id="path22"
         inkscape:connector-curvature="0"
         style="fill:#00579f" /><path
         class="st4"
         d="m 68.14079,156.28447 h -4 v 0.2 c 3.1,0.9 5.2,3.1 6,5.8 l -0.9,-5.1 c -0.1,-0.6 -0.5,-0.8 -1.1,-0.9 z"
         id="path24"
         inkscape:connector-curvature="0"
         style="fill:#faa61a" /></g></g></svg>